<?xml version="1.0" encoding="utf-8"?>
<!-- Generator: Adobe Illustrator 22.1.0, SVG Export Plug-In . SVG Version: 6.00 Build 0)  -->
<svg version="1.1" xmlns="http://www.w3.org/2000/svg" xmlns:xlink="http://www.w3.org/1999/xlink" x="0px" y="0px"
	 viewBox="0 0 569 543" style="enable-background:new 0 0 569 543;" xml:space="preserve">
<style type="text/css">
	.st0{fill:#CC0000;stroke:#000000;stroke-miterlimit:10;}
	.st1{fill:#FFFFFF;}
</style>
<g id="Layer_2">
	<rect class="st0" width="574" height="543"/>
</g>
<g id="Layer_1">
	<path class="st1" d="M298.1,156.9c0,2.2,0,4.3,0,6.5c0,98.8,0,197.6,0,296.4c0,15.1-7,25.1-20.4,29.1c-2.3,0.7-4.9,1-7.4,1
		c-27.2,0.1-54.4,0.8-81.5-0.4c-9.5-0.4-18.8-0.4-28.3,0c-27.1,1.1-54.3,0.4-81.5,0.4c-14.9,0-26.9-12.1-26.9-27.1
		c0-127.6,0-255.3,0-382.9c0-15.2,11.7-26.8,27-26.9c27.2-0.1,54.4-0.8,81.5,0.4c9.9,0.4,19.5,0.2,29.3-0.1
		c26.6-0.9,53.3-0.3,80-0.3c16.3,0,27.8,11,28,27.4c0.1,5.2,3.6,8,5.5,11.9c0.3,0.6,2.1,0.9,3.1,0.7c20.7-4.1,40.4-11.2,59.2-20.8
		c1.1-0.5,2-2.6,1.9-3.9c-0.5-9.4,1.8-12.3,12.2-14.8c7.1-1.7,11.2,0.8,14.4,8.8c18.6,47.3,37.3,94.5,55.9,141.8
		c30.5,77.7,61.1,155.3,91.5,233c1.3,3.2,2.7,6.8,2.3,10c-0.9,7.5-7.5,9-13.5,10.7c-5.1,1.5-8.8-0.8-11.2-5.2
		c-1.5-2.8-3.1-3.7-6.3-2.9c-19.7,4.6-38.6,11.3-56.9,20.1c-2.6,1.2-3.2,2.6-2.9,5.4c0.8,8.7-2,11.7-12.9,14.2
		c-6.2,1.4-10.3-1.1-13.2-8.5c-32.9-83.7-65.9-167.4-98.8-251.2c-9.3-23.6-18.6-47.1-27.8-70.7c-0.3-0.9-0.8-1.7-1.3-2.5
		C298.7,156.8,298.4,156.8,298.1,156.9z M311.6,116.6c0.7,2,1,3.3,1.5,4.5c43,107.7,86.1,215.3,129,323c1.7,4.3,3.5,4.3,7.4,2.8
		c18.1-6.7,36.4-12.9,54.6-19.3c1.5-0.5,3-1,5-1.6c-1-2.7-1.8-4.9-2.7-7c-20.2-50.4-40.4-100.8-60.6-151.2
		c-22.5-56.1-45-112.2-67.3-168.4c-1.8-4.6-3.5-5.1-8-3.2c-13.4,5.5-27,10.5-40.6,15.4C324.1,113.6,318.1,114.8,311.6,116.6z
		 M271.1,271.6c0-34.3-0.1-68.7,0.1-103c0-4.9-1.1-6.7-6.4-6.7c-23.5,0.3-47,0.2-70.5,0c-4.9,0-6.2,1.7-6.2,6.3
		c0.1,68.8,0.1,137.6,0,206.5c0,4.6,1.2,6.4,6.2,6.4c23.5-0.2,47-0.2,70.5,0c5.2,0.1,6.5-1.7,6.4-6.6
		C271,340.2,271.1,305.9,271.1,271.6z M79.1,271.6c0,34.1,0,68.3,0,102.4c0,7.1,0,7.1,7.2,7.1c22.8,0,45.6-0.1,68.4,0.1
		c5,0,6.6-1.4,6.6-6.5c-0.1-68.8-0.1-137.5,0-206.3c0-5.2-1.8-6.4-6.7-6.4c-23,0.2-46,0.1-68.9,0.1c-6.7,0-6.7,0-6.7,6.6
		C79.1,202.9,79.1,237.3,79.1,271.6z M229.4,134.9c12.2,0,24.3-0.1,36.5,0.1c3.9,0.1,5.3-1.3,5.2-5.2c-0.2-14.8-0.1-29.7,0-44.5
		c0-3.7-1-5.5-5-5.5c-24.3,0.1-48.6,0.1-73,0c-3.7,0-5,1.4-5,5c0.1,15,0.1,30,0,45c0,4,1.5,5.2,5.3,5.2
		C205.4,134.8,217.4,134.9,229.4,134.9z M229.3,463.1c12,0,24-0.1,36,0.1c4.2,0.1,6-1,5.9-5.6c-0.2-14.7-0.2-29.3,0-44
		c0-4-1.2-5.6-5.4-5.6c-24,0.1-48,0.2-72,0c-4.5,0-5.7,1.6-5.7,5.8c0.2,14.5,0.2,29,0,43.5c-0.1,4.3,1.2,5.9,5.7,5.8
		C205.6,462.9,217.5,463.1,229.3,463.1z M119.7,134.9c11.8,0,23.7-0.1,35.5,0.1c4.4,0.1,6.3-1.2,6.2-5.9c-0.3-14.5-0.2-29,0-43.5
		c0.1-4.3-1.4-5.8-5.8-5.8c-23.7,0.2-47.3,0.2-71,0c-4.6,0-5.6,1.8-5.6,5.9c0.2,14.5,0.2,29,0,43.5c-0.1,4.3,1.3,5.9,5.7,5.8
		C96.4,134.8,108,134.9,119.7,134.9z M120,463c12,0,24-0.1,36,0.1c3.8,0,5.4-1.2,5.3-5.2c-0.1-15-0.1-30,0-45c0-3.7-1.5-4.9-5.1-4.9
		c-24,0.1-48,0.1-72,0c-3.8,0-5.3,1.2-5.3,5.2c0.2,14.8,0.2,29.7,0,44.5c-0.1,4.2,1.5,5.5,5.5,5.4C96.4,462.9,108.2,463.1,120,463z"
		/>
</g>
</svg>
